<?xml version="1.0" encoding="utf-8"?>
<!-- Generator: Adobe Illustrator 26.0.0, SVG Export Plug-In . SVG Version: 6.00 Build 0)  -->
<svg version="1.1" id="Camada_1" xmlns="http://www.w3.org/2000/svg" xmlns:xlink="http://www.w3.org/1999/xlink" x="0px" y="0px"
	 viewBox="0 0 13.1 11.4" style="enable-background:new 0 0 13.1 11.4;" xml:space="preserve">
<style type="text/css">
	.st0{fill:#1D1D1B;}
</style>
<path id="Icon_awesome-heart" class="st0" d="M11.8,0.8c-1.4-1.2-3.5-1-4.8,0.3L6.5,1.6L6,1.1C4.8-0.2,2.7-0.4,1.3,0.8
	C-0.3,2.1-0.4,4.4,0.9,6C0.9,6,1,6,1,6.1L6,11.2c0.3,0.3,0.8,0.3,1.1,0c0,0,0,0,0,0l4.9-5.1c1.4-1.5,1.4-3.8-0.1-5.2
	C11.9,0.9,11.9,0.8,11.8,0.8z"/>
</svg>
